<?xml version="1.0" encoding="utf-8"?>
<!-- Generator: Adobe Illustrator 25.4.1, SVG Export Plug-In . SVG Version: 6.00 Build 0)  -->
<svg version="1.1" id="Layer_1" xmlns="http://www.w3.org/2000/svg" xmlns:xlink="http://www.w3.org/1999/xlink" x="0px" y="0px"
	 viewBox="0 0 1371 291" style="enable-background:new 0 0 1371 291;" xml:space="preserve">
<style type="text/css">
	.st0{fill:#FE0148;}
	.st1{fill:#FE033C;}
	.st2{fill:#FE3A3A;}
	.st3{fill:#FE043D;}
	.st4{fill:#FE033D;}
	.st5{fill:#FE053E;}
	.st6{fill:#FEFDFD;}
	.st7{fill:#FEFCFD;}
</style>
<g>
	<g>
		<path class="st3" d="M364.8,138.2c0,18.6-15,33.6-34.3,33.6h-14.7v30.8h-22.4v-98h37.1C349.8,104.6,364.8,119.5,364.8,138.2z
			 M342.4,138.2c0-7.1-5-12.6-11.9-12.6h-14.7v25.2h14.7C337.4,150.7,342.4,145.3,342.4,138.2z"/>
		<path class="st3" d="M441.7,170.3H431v32.2h-22.4v-98h39.2c18.6,0,33.6,15,33.6,33.6c0,12-7.3,23-18.1,28.4l20.9,36h-24.1
			L441.7,170.3z M431,150.7h16.8c6.2,0,11.2-5.5,11.2-12.6c0-7.1-5-12.6-11.2-12.6H431V150.7z"/>
		<path class="st3" d="M521.8,153.5c0-28.8,22.8-50.9,51-50.9s51,22.1,51,50.9c0,28.8-22.8,51-51,51S521.8,182.4,521.8,153.5z
			 M601.3,153.5c0-17.5-12.6-29.1-28.6-29.1c-16,0-28.6,11.6-28.6,29.1s12.6,29.1,28.6,29.1C588.7,182.7,601.3,171,601.3,153.5z"/>
		<path class="st3" d="M660.5,180.3l19.3-11.2c3.5,8.1,9.5,13.6,20.6,13.6c10.6,0,13.3-4.2,13.3-8c0-6-5.6-8.4-20.3-12.5
			c-14.6-4.1-28.8-11.1-28.8-29.8c0-18.9,16-29.8,32.9-29.8c16.1,0,28.7,7.7,35.8,22.1l-18.9,11.1c-3.4-7-8-11.3-16.9-11.3
			c-7,0-10.5,3.5-10.5,7.4c0,4.5,2.4,7.6,17.6,12.2c14.8,4.5,31.5,9.7,31.5,30.4c0,18.9-15.1,30.1-36.4,30.1
			C679.1,204.5,665.9,194.7,660.5,180.3z"/>
		<path class="st3" d="M850.6,138.2c0,18.6-15,33.6-34.3,33.6h-14.7v30.8h-22.4v-98h37.1C835.6,104.6,850.6,119.5,850.6,138.2z
			 M828.2,138.2c0-7.1-5-12.6-11.9-12.6h-14.7v25.2h14.7C823.2,150.7,828.2,145.3,828.2,138.2z"/>
		<path class="st3" d="M956,181v21.6h-61.6v-98h60.9v21.6h-38.5v16.2h35v21.3h-35V181H956z"/>
		<path class="st3" d="M1058.6,181v21.6h-57.4v-98h22.4V181H1058.6z"/>
		<path class="st3" d="M1158.4,181v21.6H1101v-98h22.4V181H1158.4z"/>
		<path class="st3" d="M1191.1,153.5c0-28.8,22.8-50.9,51-50.9s51,22.1,51,50.9c0,28.8-22.8,51-51,51S1191.1,182.4,1191.1,153.5z
			 M1270.6,153.5c0-17.5-12.6-29.1-28.6-29.1c-16,0-28.6,11.6-28.6,29.1s12.6,29.1,28.6,29.1C1258,182.7,1270.6,171,1270.6,153.5z"
			/>
	</g>
	<g>
		<path class="st3" d="M1357,86c0,15.1-12.3,27.4-27.4,27.4c-15.1,0-27.4-12.3-27.4-27.4s12.3-27.4,27.4-27.4
			C1344.7,58.6,1357,70.8,1357,86z M1354,86c0-13.6-10.9-24.7-24.4-24.7c-13.5,0-24.4,11.1-24.4,24.7s10.9,24.7,24.4,24.7
			C1343.1,110.6,1354,99.6,1354,86z M1337.8,89.7l5.8,10.2h-9.9l-3.6-7.7h-2.1v7.7h-9.2V72h12.1c5.6,0,10.9,3.6,10.9,9.4
			C1341.6,85,1340.1,87.9,1337.8,89.7z M1327.9,84.7h1.9c1.6,0,2.6-0.9,2.6-2.2c0-1.7-1.1-2.2-2.6-2.2h-1.9V84.7z"/>
	</g>
	<g>
		<path class="st0" d="M17.2,131.1c1.8-7.6,6.9-12.6,13.5-15.8c19-9.4,38.3-18.4,57.4-27.5C99.1,82.5,110,77.2,120.9,72
			c21.8-10.4,43.6-20.8,65.3-31.2c11.8-5.6,23.5-11.2,35.3-16.8c9.2-4.4,18.2-9.3,27.6-13c20.1-7.9,41.7,2.6,45.5,25
			c2.1,12.1-1.8,23-11.4,31.3c-1.3,1.1-2.4,2.3-3.6,3.5c-5,1.4-9,4.6-13.6,6.7c-10.6,5-21.1,10-31.8,15c-6.5,3-12.8,6.4-19.4,9.2
			c-6.1,2.6-11.9,5.9-17.9,8.8c-1.8,0.9-3.7,1.6-5.2,3c-0.4-1.7-1.3-1-2.2-0.6c-9.9,4.8-19.8,9.5-29.7,14.2
			c-8.2,3.9-16.5,7.6-24.6,11.7c-4.5,2.3-9.5,3.9-13.7,6.9c-6.4-1.5-11.9-5.1-17.8-7.7c-5.4-2.3-10.6-5.1-15.9-7.6
			c-7.7-3.7-15.3-7.4-23-10.9c-5.2-2.4-10.3-5.3-16.2-5.5c-11.7-0.4-20.9,4.4-28,13.6C19.8,128.9,19.3,130.9,17.2,131.1z"/>
		<path class="st1" d="M17.2,131.1c2.1-0.2,2.6-2.2,3.6-3.4c7.1-9.2,16.3-14,28-13.6c5.9,0.2,11,3.1,16.2,5.5
			c7.7,3.5,15.3,7.2,23,10.9c5.3,2.5,10.5,5.3,15.9,7.6c5.9,2.6,11.4,6.2,17.8,7.7c5.7,2.6,11.3,5.2,17,7.9
			c13.7,6.5,27.2,13.2,41,19.5c4.5,2.1,8.8,5,13.7,6.2c0.5,1.4,1.1,2.8,1.5,4.3c1.6,5.7,2.9,11.6,4.8,17.2
			c5.6,16.8,13.1,32.7,22.6,47.6c6.1,9.6,11.5,19.8,20.5,27.3c0.3,0.2,0.3,0.7,0.4,1.1c-4.2-1.2-7.9-3.6-11.8-5.4
			c-10.8-5-21.5-10.3-32.2-15.4c-18.7-8.9-37.3-17.9-56-26.8c-11.2-5.3-22.4-10.7-33.7-16c-19.9-9.4-39.8-18.7-59.6-28.4
			c-8.1-3.9-16.7-6.8-23.8-12.5c-7.3-5.9-11.4-13.7-11.8-23.2c-0.2-5.8-0.2-11.6,2.6-16.9c0.1-0.3,0.3-0.6,0.4-0.9l0-0.2L17.2,131.1
			z"/>
		<path class="st2" d="M243,276.9c-0.1-0.4-0.1-0.9-0.4-1.1c-8.9-7.5-14.4-17.7-20.5-27.3c-9.5-14.9-17.1-30.8-22.6-47.6
			c-1.9-5.6-3.2-11.5-4.8-17.2c-0.4-1.5-1-2.9-1.5-4.3c-3.6-15.9-4.1-32.1-3.6-48.4c0.2-5.9,0.7-11.8,2.1-17.6
			c1.5-1.4,3.4-2.1,5.2-3c6-2.8,11.8-6.1,17.9-8.8c6.6-2.8,12.9-6.2,19.4-9.2c10.6-4.9,21.2-9.9,31.8-15c4.6-2.2,8.6-5.4,13.6-6.7
			c-3.1,4.7-6.4,9.3-9.2,14.2c-7.4,13-12.6,26.8-14.2,41.8c-0.5,4.6-1.1,9.2-1.1,13.8c0,17,3.7,33.2,10.2,48.7
			c5.9,14.1,13.6,27.2,22.9,39.5c12.7,16.8,7.7,43.3-14.2,51.7c-8.9,3.4-18.1,3-26.8-1.3C245.9,278.4,244.5,277.6,243,276.9z"/>
		<path class="st0" d="M17.1,131.4c-0.1,0.3-0.3,0.6-0.4,0.9C16.5,131.9,16.7,131.5,17.1,131.4z"/>
		<path class="st6" d="M191.8,113.4c-1.4,5.8-2,11.7-2.1,17.6c-0.5,16.2,0,32.4,3.6,48.4c-5-1.2-9.2-4.1-13.7-6.2
			c-13.7-6.4-27.3-13-41-19.5c-5.6-2.7-11.3-5.3-17-7.9c4.2-3.1,9.1-4.6,13.7-6.9c8.1-4.1,16.4-7.8,24.6-11.7
			c9.9-4.7,19.8-9.5,29.7-14.2C190.5,112.4,191.4,111.7,191.8,113.4z"/>
	</g>
</g>
</svg>
